<svg width="39" height="31" viewBox="0 0 39 31" fill="none" xmlns="http://www.w3.org/2000/svg">
<path d="M17.4997 23.1817C17.4997 24.0352 16.8468 24.7271 16.0413 24.7271C15.2359 24.7271 14.583 24.0352 14.583 23.1817C14.583 22.3282 15.2359 21.6362 16.0413 21.6362C16.8468 21.6362 17.4997 22.3282 17.4997 23.1817Z" fill="#919095"/>
<path fill-rule="evenodd" clip-rule="evenodd" d="M16.0417 0C16.5713 0 17.0593 0.304288 17.3165 0.794915L31.8998 28.6131C32.1508 29.0918 32.1439 29.6754 31.8819 30.1474C31.6199 30.6193 31.1417 30.9091 30.625 30.9091H1.45833C0.941617 30.9091 0.46348 30.6193 0.201438 30.1474C-0.0606027 29.6754 -0.0674189 29.0918 0.183521 28.6131L14.7669 0.794915C15.0241 0.304288 15.512 0 16.0417 0ZM3.93679 27.8182H28.1465L16.0417 4.72774L3.93679 27.8182ZM16.0417 10.8182C16.8471 10.8182 17.5 11.5101 17.5 12.3636V18.5455C17.5 19.399 16.8471 20.0909 16.0417 20.0909C15.2362 20.0909 14.5833 19.399 14.5833 18.5455V12.3636C14.5833 11.5101 15.2362 10.8182 16.0417 10.8182Z" fill="#919095"/>
<path d="M34.1875 24V28.6364M36.375 26.3182H32" stroke="#919095" stroke-linecap="round"/>
<rect x="29.25" y="21.25" width="9.5" height="9.5" stroke="#919095" stroke-width="0.5"/>
</svg>
